<?xml version="1.0" standalone="no"?>
<!DOCTYPE svg PUBLIC "-//W3C//DTD SVG 20010904//EN"
 "http://www.w3.org/TR/2001/REC-SVG-20010904/DTD/svg10.dtd">
<svg version="1.0" xmlns="http://www.w3.org/2000/svg"
 width="700.000000pt" height="700.000000pt" viewBox="0 0 700.000000 700.000000"
 preserveAspectRatio="xMidYMid meet">
<metadata>
Created by potrace 1.11, written by Peter Selinger 2001-2013
</metadata>
<g transform="translate(0.000000,700.000000) scale(0.100000,-0.100000)"
fill="#000000" stroke="none">
<path d="M3000 5454 c-186 -28 -309 -67 -422 -135 -91 -53 -98 -59 -193 -154
-78 -78 -161 -192 -222 -305 -52 -97 -125 -281 -149 -375 -4 -16 -8 -34 -10
-40 -9 -34 -45 -217 -54 -268 -28 -182 -31 -593 -6 -737 3 -14 7 -43 11 -65
26 -181 86 -392 147 -524 17 -36 32 -70 34 -76 2 -13 82 -147 125 -210 47 -70
193 -213 264 -260 168 -110 323 -155 555 -161 282 -6 493 55 674 196 69 54
216 230 216 258 0 6 4 12 9 14 13 4 84 160 114 248 24 70 49 161 61 220 3 14
7 36 11 50 3 14 7 43 10 65 3 22 8 60 12 85 3 25 7 61 7 80 l1 35 -168 0 c-93
0 -170 -2 -172 -5 -3 -5 -14 -65 -21 -115 -2 -16 -5 -37 -7 -45 -9 -36 -21
-116 -19 -122 1 -5 -2 -8 -6 -8 -4 0 -8 -8 -9 -17 -2 -24 -37 -128 -61 -185
-57 -130 -164 -253 -274 -316 -215 -121 -512 -111 -723 23 -63 40 -170 138
-201 185 -13 19 -36 53 -51 75 -33 49 -96 176 -96 193 0 6 -3 12 -7 12 -5 0
-28 72 -35 110 -1 3 -8 30 -17 60 -44 150 -62 306 -62 550 0 256 22 452 68
603 8 26 12 47 9 47 -3 0 0 7 7 15 7 8 9 15 5 15 -4 0 -2 7 5 15 6 8 9 19 5
25 -3 5 -1 10 4 10 6 0 10 3 10 8 -3 12 22 72 56 138 151 291 375 439 660 436
206 -2 377 -64 490 -176 60 -59 74 -78 113 -148 19 -33 61 -139 67 -168 2 -8
8 -35 14 -60 5 -25 13 -61 16 -80 3 -19 8 -37 11 -39 9 -9 329 -7 335 2 11 15
-38 232 -77 342 -31 89 -31 89 -33 97 -2 7 -57 114 -83 160 -114 201 -340 361
-567 403 -14 3 -37 7 -51 11 -30 7 -294 13 -330 8z"/>
<path d="M5585 5450 c-27 -4 -70 -11 -93 -15 -102 -15 -259 -76 -357 -137
-240 -151 -438 -432 -552 -786 -25 -78 -29 -94 -39 -146 -2 -16 -7 -32 -9 -36
-6 -10 -14 -58 -21 -119 -3 -30 -7 -58 -9 -61 -3 -6 -7 -37 -21 -205 -7 -82
-9 -205 -4 -205 3 0 5 -33 6 -73 1 -74 12 -213 20 -251 3 -12 7 -34 9 -51 3
-31 11 -73 20 -112 3 -13 7 -33 10 -44 2 -12 12 -47 21 -78 9 -31 17 -63 19
-71 6 -26 71 -181 108 -258 116 -237 316 -445 532 -552 150 -74 267 -102 440
-104 144 -1 223 6 272 25 15 6 29 10 31 10 8 -3 64 15 109 36 28 12 55 23 59
23 4 0 51 29 104 65 91 60 246 201 297 270 12 17 29 39 37 50 13 18 15 17 24
-20 5 -22 19 -92 32 -155 12 -63 23 -119 24 -125 2 -5 6 -31 11 -58 l7 -47
107 2 106 3 1 843 1 842 -551 -2 -550 -3 -1 -165 c0 -91 1 -170 2 -175 3 -7
131 -11 394 -10 215 0 396 -3 401 -6 11 -7 5 -216 -7 -269 -3 -14 -7 -41 -10
-60 -2 -19 -12 -60 -22 -90 -9 -30 -18 -59 -18 -65 -1 -5 -20 -49 -43 -96
-158 -327 -468 -506 -812 -467 -308 34 -534 196 -679 487 -21 42 -48 105 -61
141 -12 36 -25 72 -28 80 -3 8 -7 24 -9 35 -2 11 -7 31 -13 45 -5 14 -12 41
-15 60 -6 33 -11 59 -15 70 -1 3 -2 9 -1 13 1 5 -3 34 -8 65 -29 160 -32 472
-6 602 6 32 17 100 20 125 1 11 5 27 8 35 4 8 8 29 10 45 2 17 6 35 9 40 3 6
16 44 29 85 13 41 28 78 34 82 5 4 7 8 2 8 -4 0 8 31 27 68 165 328 437 513
756 515 44 0 176 -12 200 -18 3 -1 21 -5 40 -9 19 -5 41 -12 50 -16 8 -4 40
-18 70 -31 103 -45 209 -136 282 -243 42 -60 95 -169 102 -208 3 -13 5 -23 6
-23 1 0 3 -7 5 -15 2 -8 7 -26 10 -40 3 -14 7 -32 9 -39 2 -12 32 -15 172 -15
l169 0 -1 24 c-3 57 -31 178 -60 260 -25 70 -117 260 -126 260 -4 0 -8 5 -8
11 0 6 -14 30 -32 53 -164 211 -380 339 -659 391 -54 10 -319 14 -374 5z"/>
<path d="M1149 5398 c-1 -2 -2 -543 -3 -1203 -2 -660 -6 -1222 -10 -1250 -3
-27 -9 -63 -11 -80 -20 -135 -76 -238 -173 -317 -106 -86 -298 -90 -418 -7
-68 47 -146 171 -159 254 -2 11 -6 31 -10 45 -11 47 -18 145 -19 275 0 72 -3
132 -7 135 -6 4 -308 5 -331 1 -8 -1 -2 -402 7 -451 3 -19 8 -46 10 -60 15
-84 36 -143 81 -230 92 -178 236 -293 433 -347 61 -17 265 -23 342 -10 219 35
417 192 508 402 12 28 26 59 31 70 5 11 12 34 16 50 4 17 8 35 10 40 1 6 5 26
8 45 4 19 9 42 11 51 14 45 17 276 19 1382 l1 1207 -167 0 c-93 0 -169 -1
-169 -2z"/>
</g>
</svg>
